<svg width="24" height="24" viewBox="0 0 24 24" fill="none" xmlns="http://www.w3.org/2000/svg">
<path d="M18.6819 18.8859L18.681 18.8873C18.2744 19.512 17.8052 20.1761 17.2753 20.6841C16.7416 21.1957 16.205 21.4926 15.6632 21.5L15.6616 21.5001C15.201 21.5079 14.9146 21.3783 14.501 21.1912L14.4861 21.1845L14.4849 21.1839C14.4667 21.1757 14.4485 21.1675 14.4301 21.1592C13.9399 20.9385 13.3429 20.6697 12.3373 20.68C11.3064 20.6805 10.6995 20.953 10.1929 21.1805L10.188 21.1827L10.1853 21.1839L10.1739 21.1889C9.74983 21.3763 9.4519 21.508 8.9784 21.5001L8.97706 21.5C8.43323 21.4924 7.91382 21.221 7.40512 20.7523C6.89633 20.2835 6.4438 19.6591 6.03914 19.0373C4.93711 17.3433 4.3297 15.5099 4.16643 13.8462C4.00231 12.1739 4.28996 10.7177 4.91998 9.74143C5.85435 8.29845 7.29801 7.5 8.59006 7.5C9.29258 7.5 9.85731 7.69923 10.4704 7.92036L10.4719 7.92088C10.4836 7.92506 10.4953 7.92925 10.5071 7.93344C11.0455 8.12587 11.6447 8.34 12.3301 8.34C12.9848 8.34 13.5101 8.14034 13.997 7.95524L14.0177 7.9474L14.0177 7.94742L14.0217 7.94586C14.6004 7.72025 15.1879 7.5 16.0501 7.5C17.0545 7.5 18.152 7.98572 19.0281 8.88069C16.0895 10.9935 16.613 15.47 19.6981 17.0429C19.3796 17.7406 19.1564 18.162 18.6819 18.8859ZM14.3148 21.6557C14.7212 21.8398 15.0964 22.0097 15.6701 22L14.2801 21.64C14.2917 21.6453 14.3033 21.6505 14.3148 21.6557Z" fill="white" stroke="white"/>
<path fill-rule="evenodd" clip-rule="evenodd" d="M15.8404 2C16.0004 3.1 15.5504 4.19001 14.9604 4.95001C14.3304 5.77001 13.2304 6.41 12.1704 6.37C11.9804 5.31 12.4704 4.21999 13.0704 3.48999C13.7404 2.68999 14.8704 2.07 15.8404 2Z" fill="white"/>
</svg>
