<svg width="14" height="14" viewBox="0 0 14 14" fill="none" xmlns="http://www.w3.org/2000/svg">
<g clip-path="url(#clip0_1301_14170)">
<path d="M1.14258 6.99988C1.14258 4.84536 1.14258 3.76809 1.8119 3.09877C2.48123 2.42944 3.55849 2.42944 5.71302 2.42944H7.99823C10.1528 2.42944 11.23 2.42944 11.8993 3.09877C12.5687 3.76809 12.5687 4.84536 12.5687 6.99988V8.14249C12.5687 10.297 12.5687 11.3743 11.8993 12.0436C11.23 12.7129 10.1528 12.7129 7.99823 12.7129H5.71301C3.55849 12.7129 2.48123 12.7129 1.8119 12.0436C1.14258 11.3743 1.14258 10.297 1.14258 8.14249V6.99988Z" stroke="white" stroke-width="0.856957"/>
<path d="M3.99805 2.42941V1.57245" stroke="white" stroke-width="0.856957" stroke-linecap="round"/>
<path d="M9.71289 2.42941V1.57245" stroke="white" stroke-width="0.856957" stroke-linecap="round"/>
<path d="M1.42773 5.28607H12.2825" stroke="white" stroke-width="0.856957" stroke-linecap="round"/>
<path d="M10.2832 9.85652C10.2832 10.172 10.0275 10.4278 9.71193 10.4278C9.39641 10.4278 9.14062 10.172 9.14062 9.85652C9.14062 9.541 9.39641 9.28522 9.71193 9.28522C10.0275 9.28522 10.2832 9.541 10.2832 9.85652Z" fill="white"/>
<path d="M10.2832 7.5713C10.2832 7.88683 10.0275 8.14261 9.71193 8.14261C9.39641 8.14261 9.14062 7.88683 9.14062 7.5713C9.14062 7.25578 9.39641 7 9.71193 7C10.0275 7 10.2832 7.25578 10.2832 7.5713Z" fill="white"/>
<path d="M7.42777 9.85652C7.42777 10.172 7.17198 10.4278 6.85646 10.4278C6.54094 10.4278 6.28516 10.172 6.28516 9.85652C6.28516 9.541 6.54094 9.28522 6.85646 9.28522C7.17198 9.28522 7.42777 9.541 7.42777 9.85652Z" fill="white"/>
<path d="M7.42777 7.5713C7.42777 7.88683 7.17198 8.14261 6.85646 8.14261C6.54094 8.14261 6.28516 7.88683 6.28516 7.5713C6.28516 7.25578 6.54094 7 6.85646 7C7.17198 7 7.42777 7.25578 7.42777 7.5713Z" fill="white"/>
<path d="M4.57034 9.85652C4.57034 10.172 4.31456 10.4278 3.99904 10.4278C3.68352 10.4278 3.42773 10.172 3.42773 9.85652C3.42773 9.541 3.68352 9.28522 3.99904 9.28522C4.31456 9.28522 4.57034 9.541 4.57034 9.85652Z" fill="white"/>
<path d="M4.57034 7.5713C4.57034 7.88683 4.31456 8.14261 3.99904 8.14261C3.68352 8.14261 3.42773 7.88683 3.42773 7.5713C3.42773 7.25578 3.68352 7 3.99904 7C4.31456 7 4.57034 7.25578 4.57034 7.5713Z" fill="white"/>
</g>
<defs>
<clipPath id="clip0_1301_14170">
<rect width="13.7113" height="13.7113" fill="white" transform="translate(0 0.144348)"/>
</clipPath>
</defs>
</svg>
