<svg width="32" height="32" viewBox="0 0 32 32" fill="none" xmlns="http://www.w3.org/2000/svg">
<path d="M2.66602 16C2.66602 10.9717 2.66602 8.45751 4.22811 6.89541C5.79021 5.33331 8.30437 5.33331 13.3327 5.33331H18.666C23.6943 5.33331 26.2085 5.33331 27.7706 6.89541C29.3327 8.45751 29.3327 10.9717 29.3327 16V18.6666C29.3327 23.695 29.3327 26.2091 27.7706 27.7712C26.2085 29.3333 23.6943 29.3333 18.666 29.3333H13.3327C8.30437 29.3333 5.79021 29.3333 4.22811 27.7712C2.66602 26.2091 2.66602 23.695 2.66602 18.6666V16Z" stroke="white" stroke-width="2"/>
<path d="M9.33398 5.33331V3.33331" stroke="white" stroke-width="2" stroke-linecap="round"/>
<path d="M22.666 5.33331V3.33331" stroke="white" stroke-width="2" stroke-linecap="round"/>
<path d="M3.33398 12H28.6673" stroke="white" stroke-width="2" stroke-linecap="round"/>
<path d="M24.0007 22.6667C24.0007 23.403 23.4037 24 22.6673 24C21.9309 24 21.334 23.403 21.334 22.6667C21.334 21.9303 21.9309 21.3333 22.6673 21.3333C23.4037 21.3333 24.0007 21.9303 24.0007 22.6667Z" fill="white"/>
<path d="M24.0007 17.3333C24.0007 18.0697 23.4037 18.6667 22.6673 18.6667C21.9309 18.6667 21.334 18.0697 21.334 17.3333C21.334 16.597 21.9309 16 22.6673 16C23.4037 16 24.0007 16.597 24.0007 17.3333Z" fill="white"/>
<path d="M17.3327 22.6667C17.3327 23.403 16.7357 24 15.9993 24C15.263 24 14.666 23.403 14.666 22.6667C14.666 21.9303 15.263 21.3333 15.9993 21.3333C16.7357 21.3333 17.3327 21.9303 17.3327 22.6667Z" fill="white"/>
<path d="M17.3327 17.3333C17.3327 18.0697 16.7357 18.6667 15.9993 18.6667C15.263 18.6667 14.666 18.0697 14.666 17.3333C14.666 16.597 15.263 16 15.9993 16C16.7357 16 17.3327 16.597 17.3327 17.3333Z" fill="white"/>
<path d="M10.6667 22.6667C10.6667 23.403 10.0697 24 9.33333 24C8.59695 24 8 23.403 8 22.6667C8 21.9303 8.59695 21.3333 9.33333 21.3333C10.0697 21.3333 10.6667 21.9303 10.6667 22.6667Z" fill="white"/>
<path d="M10.6667 17.3333C10.6667 18.0697 10.0697 18.6667 9.33333 18.6667C8.59695 18.6667 8 18.0697 8 17.3333C8 16.597 8.59695 16 9.33333 16C10.0697 16 10.6667 16.597 10.6667 17.3333Z" fill="white"/>
</svg>
