<svg width="24" height="24" viewBox="0 0 24 24" fill="none" xmlns="http://www.w3.org/2000/svg">
<path d="M21.968 18.3299C21.968 18.6899 21.888 19.0599 21.718 19.4199C21.548 19.7799 21.3281 20.1199 21.0381 20.4399C20.548 20.9799 20.008 21.3699 19.398 21.6199C18.798 21.8699 18.148 21.9999 17.448 21.9999C16.428 21.9999 15.338 21.7599 14.188 21.2699C13.038 20.7799 11.888 20.1199 10.748 19.2899C9.59805 18.4499 8.50805 17.5199 7.46805 16.4899C6.43805 15.4499 5.50805 14.3599 4.67805 13.2199C3.85805 12.0799 3.19805 10.9399 2.71805 9.80988C2.23805 8.66988 1.99805 7.57988 1.99805 6.53988C1.99805 5.85988 2.11805 5.20988 2.35805 4.60988C2.59805 3.99988 2.97805 3.43988 3.50805 2.93988C4.14805 2.30988 4.84805 1.99988 5.58805 1.99988C5.86805 1.99988 6.14805 2.05988 6.39805 2.17988C6.65805 2.29988 6.88805 2.47988 7.06805 2.73988L9.38805 6.00988C9.56805 6.25988 9.69805 6.48988 9.78805 6.70988C9.87805 6.91988 9.92805 7.12988 9.92805 7.31988C9.92805 7.55988 9.85805 7.79988 9.71805 8.02988C9.58805 8.25988 9.39805 8.49988 9.15805 8.73988L8.39805 9.52988C8.28805 9.63988 8.23805 9.76988 8.23805 9.92988C8.23805 10.0099 8.24805 10.0799 8.26805 10.1599C8.29805 10.2399 8.32805 10.2999 8.34805 10.3599C8.52805 10.6899 8.83805 11.1199 9.27805 11.6399C9.72805 12.1599 10.208 12.6899 10.728 13.2199C11.268 13.7499 11.788 14.2399 12.318 14.6899C12.838 15.1299 13.268 15.4299 13.608 15.6099C13.658 15.6299 13.718 15.6599 13.788 15.6899C13.868 15.7199 13.948 15.7299 14.038 15.7299C14.208 15.7299 14.338 15.6699 14.448 15.5599L15.208 14.8099C15.458 14.5599 15.698 14.3699 15.928 14.2499C16.158 14.1099 16.388 14.0399 16.638 14.0399C16.828 14.0399 17.028 14.0799 17.248 14.1699C17.468 14.2599 17.698 14.3899 17.948 14.5599L21.258 16.9099C21.518 17.0899 21.698 17.2999 21.808 17.5499C21.908 17.7999 21.968 18.0499 21.968 18.3299Z" stroke="white" stroke-width="2.25" stroke-miterlimit="10"/>
<path d="M16.2012 7.8H21.0012M16.2012 7.8V3V7.8Z" stroke="white" stroke-width="2.25" stroke-linecap="round" stroke-linejoin="round"/>
</svg>
