<svg width="34" height="34" viewBox="0 0 34 34" fill="none" xmlns="http://www.w3.org/2000/svg">
<g clip-path="url(#clip0_1325_19162)">
<path d="M17 33C25.8366 33 33 25.8366 33 17C33 8.16344 25.8366 1 17 1C8.16344 1 1 8.16344 1 17C1 25.8366 8.16344 33 17 33Z" fill="#F0F0F0"/>
<path d="M32.0048 22.5651C32.648 20.8318 33 18.957 33 16.9999C33 15.0428 32.648 13.168 32.0048 11.4347H1.99519C1.35206 13.168 1 15.0428 1 16.9999C1 18.957 1.35206 20.8318 1.99519 22.5651L17 23.9564L32.0048 22.5651Z" fill="#0052B4"/>
<path d="M16.999 33.0001C23.8784 33.0001 29.7431 28.6581 32.0038 22.5653H1.99414C4.25483 28.6581 10.1195 33.0001 16.999 33.0001Z" fill="#D80027"/>
</g>
<path d="M1 17C1 8.16344 8.16344 1 17 1C25.8366 1 33 8.16344 33 17C33 25.8366 25.8366 33 17 33C8.16344 33 1 25.8366 1 17Z" stroke="white" stroke-width="1.33333"/>
<defs>
<clipPath id="clip0_1325_19162">
<path d="M1 17C1 8.16344 8.16344 1 17 1C25.8366 1 33 8.16344 33 17C33 25.8366 25.8366 33 17 33C8.16344 33 1 25.8366 1 17Z" fill="white"/>
</clipPath>
</defs>
</svg>
