<svg width="24" height="24" viewBox="0 0 24 24" fill="none" xmlns="http://www.w3.org/2000/svg">
<path d="M21.1782 12.5017L21.1759 12.5028L18.3959 13.8928L18.3959 13.8927L18.3938 13.8938C18.3915 13.8928 18.3883 13.891 18.3845 13.8879L16.5231 12.0265C16.5226 12.026 16.5221 12.0255 16.5217 12.025C16.5221 12.0246 16.5226 12.0241 16.5231 12.0236L16.5231 12.0236L18.4212 10.1255C18.4214 10.1254 18.4217 10.1253 18.422 10.1253L18.4253 10.1269L21.1753 11.5069L21.1752 11.507L21.1828 11.5106C21.5902 11.7066 21.6015 12.2927 21.1782 12.5017L21.1782 12.5017Z" fill="white" stroke="white"/>
<path d="M16.3009 8.48996C16.6109 8.63996 16.6709 9.04998 16.4309 9.28998L14.7609 10.96L14.0509 11.67C13.8509 11.87 13.5409 11.87 13.3409 11.67L6.20095 4.52997C5.80095 4.12997 6.27095 3.47998 6.78095 3.72998L16.3009 8.48996Z" fill="white"/>
<path d="M2 20.1501V3.48008C2 3.04008 2.53 2.81007 2.85 3.12007L11.62 11.6301C11.83 11.8301 11.82 12.1601 11.61 12.3601L2.84 20.5201C2.52 20.8201 2 20.5901 2 20.1501Z" fill="white"/>
<path d="M16.2706 15.52L6.88056 20.22C6.37056 20.47 5.90056 19.82 6.30056 19.42L13.3506 12.37C13.5506 12.17 13.8606 12.17 14.0606 12.37L16.4106 14.72C16.6406 14.96 16.5706 15.37 16.2706 15.52Z" fill="white"/>
</svg>
