<svg width="15" height="14" viewBox="0 0 15 14" fill="none" xmlns="http://www.w3.org/2000/svg">
<path d="M5.62642 10.9039L5.88991 10.5696L5.62642 10.9039ZM7.35058 3.29384L7.04393 3.58899C7.12417 3.67235 7.23488 3.71945 7.35058 3.71945C7.46628 3.71945 7.57699 3.67235 7.65722 3.58899L7.35058 3.29384ZM9.07473 10.9039L9.33822 11.2381L9.07473 10.9039ZM5.88991 10.5696C5.02981 9.89161 4.08931 9.22947 3.3432 8.38932C2.61168 7.56561 2.10139 6.60444 2.10139 5.35746H1.25017C1.25017 6.8701 1.88036 8.02402 2.70673 8.95455C3.51852 9.86865 4.55334 10.5999 5.36293 11.2381L5.88991 10.5696ZM2.10139 5.35746C2.10139 4.13689 2.79109 3.11332 3.73253 2.68299C4.64714 2.26491 5.87607 2.37563 7.04393 3.58899L7.65722 2.9987C6.27151 1.559 4.66305 1.32171 3.37865 1.90881C2.12109 2.48365 1.25017 3.81842 1.25017 5.35746H2.10139ZM5.36293 11.2381C5.65362 11.4673 5.96567 11.7116 6.28191 11.8964C6.59802 12.0811 6.95879 12.2313 7.35058 12.2313V11.3801C7.17489 11.3801 6.96818 11.3116 6.71137 11.1615C6.45471 11.0115 6.18842 10.805 5.88991 10.5696L5.36293 11.2381ZM9.33822 11.2381C10.1478 10.5999 11.1826 9.86865 11.9944 8.95455C12.8208 8.02402 13.451 6.8701 13.451 5.35746H12.5998C12.5998 6.60444 12.0895 7.56561 11.358 8.38932C10.6118 9.22947 9.67135 9.89161 8.81124 10.5696L9.33822 11.2381ZM13.451 5.35746C13.451 3.81842 12.5801 2.48365 11.3225 1.90881C10.0381 1.32171 8.42964 1.559 7.04393 2.9987L7.65722 3.58899C8.82508 2.37563 10.054 2.26491 10.9686 2.68299C11.9101 3.11332 12.5998 4.13689 12.5998 5.35746H13.451ZM8.81124 10.5696C8.51273 10.805 8.24645 11.0115 7.98978 11.1615C7.73298 11.3116 7.52627 11.3801 7.35058 11.3801V12.2313C7.74237 12.2313 8.10314 12.0811 8.41924 11.8964C8.73549 11.7116 9.04754 11.4673 9.33822 11.2381L8.81124 10.5696Z" fill="white"/>
</svg>
