<svg width="158" height="36" viewBox="0 0 158 36" fill="none" xmlns="http://www.w3.org/2000/svg">
<path d="M12.6622 17.0469H4.26379V22.4232H11.284C11.9348 22.4232 12.4181 22.5713 12.7339 22.8676C13.0593 23.1543 13.2221 23.5414 13.2221 24.0289C13.2221 24.5163 13.0593 24.9034 12.7339 25.1901C12.4085 25.4769 11.9252 25.6202 11.284 25.6202H4.26379V32.5449C4.26379 33.4242 4.0628 34.0789 3.66083 34.509C3.26843 34.9295 2.76117 35.1398 2.13907 35.1398C1.5074 35.1398 0.990577 34.9248 0.588604 34.4947C0.196201 34.0646 0 33.4146 0 32.5449V16.3731C0 15.7614 0.0909225 15.2644 0.272768 14.8821C0.454613 14.4902 0.736951 14.2082 1.11978 14.0362C1.51219 13.8546 2.00987 13.7638 2.61283 13.7638H12.6622C13.3417 13.7638 13.8442 13.9167 14.1696 14.2226C14.5045 14.5189 14.672 14.9107 14.672 15.3982C14.672 15.8952 14.5045 16.2966 14.1696 16.6025C13.8442 16.8988 13.3417 17.0469 12.6622 17.0469Z" fill="white"/>
<path d="M17.8878 26.0934V15.986C17.8878 15.1258 18.0792 14.4806 18.4621 14.0505C18.8545 13.6204 19.3665 13.4054 19.9982 13.4054C20.6586 13.4054 21.1802 13.6204 21.563 14.0505C21.9554 14.4806 22.1516 15.1258 22.1516 15.986V26.3227C22.1516 27.4984 22.2808 28.4828 22.5392 29.2761C22.8072 30.0598 23.2762 30.6715 23.9461 31.1112C24.6161 31.5413 25.554 31.7563 26.7599 31.7563C28.4253 31.7563 29.6025 31.3167 30.2916 30.4374C30.9807 29.5485 31.3252 28.2056 31.3252 26.4088V15.986C31.3252 15.1162 31.5166 14.4711 31.8995 14.0505C32.2823 13.6204 32.7943 13.4054 33.4356 13.4054C34.0768 13.4054 34.5936 13.6204 34.986 14.0505C35.388 14.4711 35.589 15.1162 35.589 15.986V26.0934C35.589 27.7373 35.4263 29.1088 35.1009 30.208C34.785 31.3071 34.1821 32.2725 33.292 33.104C32.5263 33.8113 31.6363 34.3274 30.6218 34.6524C29.6072 34.9773 28.4205 35.1398 27.0614 35.1398C25.444 35.1398 24.0514 34.9678 22.8838 34.6237C21.7161 34.27 20.7638 33.73 20.0269 33.0036C19.2899 32.2677 18.7492 31.331 18.4046 30.1936C18.0601 29.0467 17.8878 27.68 17.8878 26.0934Z" fill="white"/>
<path d="M53.8644 17.2763H49.213V32.5449C49.213 33.4242 49.0168 34.0789 48.6244 34.509C48.232 34.9295 47.7248 35.1398 47.1027 35.1398C46.471 35.1398 45.9542 34.9248 45.5522 34.4947C45.1598 34.0646 44.9636 33.4146 44.9636 32.5449V17.2763H40.3122C39.5848 17.2763 39.0441 17.1186 38.6899 16.8032C38.3358 16.4782 38.1588 16.0529 38.1588 15.5272C38.1588 14.9824 38.3406 14.5523 38.7043 14.2369C39.0775 13.9215 39.6135 13.7638 40.3122 13.7638H53.8644C54.6014 13.7638 55.1469 13.9263 55.501 14.2513C55.8647 14.5762 56.0466 15.0015 56.0466 15.5272C56.0466 16.0529 55.8647 16.4782 55.501 16.8032C55.1373 17.1186 54.5918 17.2763 53.8644 17.2763Z" fill="white"/>
<path d="M86.6396 25.7923H85.1466V32.5449C85.1466 33.4337 84.9504 34.0884 84.558 34.509C84.1656 34.9295 83.6535 35.1398 83.0218 35.1398C82.3423 35.1398 81.8159 34.92 81.4427 34.4803C81.0694 34.0407 80.8828 33.3955 80.8828 32.5449V16.3731C80.8828 15.4555 81.0885 14.7913 81.5001 14.3803C81.9116 13.9693 82.5768 13.7638 83.4956 13.7638H90.4296C91.3867 13.7638 92.205 13.8068 92.8846 13.8928C93.5641 13.9693 94.1766 14.1318 94.7221 14.3803C95.3825 14.6575 95.9663 15.0541 96.4736 15.5702C96.9809 16.0864 97.3637 16.6885 97.6221 17.3767C97.8901 18.0553 98.0241 18.7769 98.0241 19.5415C98.0241 21.109 97.579 22.361 96.6889 23.2977C95.8084 24.2344 94.4685 24.8986 92.6692 25.2905C93.4253 25.6919 94.1479 26.2845 94.837 27.0683C95.5261 27.852 96.1386 28.6883 96.6746 29.5772C97.2201 30.4565 97.6412 31.2546 97.9379 31.9714C98.2442 32.6787 98.3973 33.1661 98.3973 33.4337C98.3973 33.7109 98.3064 33.9881 98.1246 34.2653C97.9523 34.5329 97.713 34.7432 97.4067 34.8961C97.1005 35.0586 96.7464 35.1398 96.3444 35.1398C95.8659 35.1398 95.4639 35.0251 95.1385 34.7957C94.8131 34.5759 94.5307 34.2939 94.2915 33.9499C94.0618 33.6058 93.7459 33.0992 93.3439 32.4302L91.6356 29.5915C91.023 28.5497 90.4727 27.7564 89.9846 27.2116C89.5061 26.6668 89.0179 26.2941 88.5203 26.0934C88.0226 25.8926 87.3957 25.7923 86.6396 25.7923ZM89.0802 16.9609H85.1466V22.7386H88.9653C89.9894 22.7386 90.8508 22.6526 91.5494 22.4805C92.2481 22.2989 92.7793 21.9978 93.143 21.5773C93.5162 21.1472 93.7029 20.5594 93.7029 19.8139C93.7029 19.2309 93.5545 18.7195 93.2578 18.2799C92.9611 17.8307 92.5496 17.4961 92.0232 17.2763C91.5255 17.066 90.5445 16.9609 89.0802 16.9609Z" fill="white"/>
<path d="M115.941 17.0469H106.336V22.2081H115.18C115.831 22.2081 116.314 22.3563 116.63 22.6526C116.955 22.9393 117.118 23.3216 117.118 23.7995C117.118 24.2774 116.96 24.6692 116.644 24.9751C116.328 25.2714 115.84 25.4195 115.18 25.4195H106.336V31.3979H116.271C116.941 31.3979 117.443 31.5556 117.778 31.871C118.123 32.1769 118.295 32.5879 118.295 33.104C118.295 33.601 118.123 34.0072 117.778 34.3226C117.443 34.6285 116.941 34.7814 116.271 34.7814H104.685C103.757 34.7814 103.087 34.5759 102.675 34.1649C102.273 33.7539 102.073 33.0897 102.073 32.1721V16.3731C102.073 15.7614 102.163 15.2644 102.345 14.8821C102.527 14.4902 102.809 14.2082 103.192 14.0362C103.585 13.8546 104.082 13.7638 104.685 13.7638H115.941C116.62 13.7638 117.123 13.9167 117.448 14.2226C117.783 14.5189 117.95 14.9107 117.95 15.3982C117.95 15.8952 117.783 16.2966 117.448 16.6025C117.123 16.8988 116.62 17.0469 115.941 17.0469Z" fill="white"/>
<path d="M137.676 28.4732C137.676 29.7444 137.346 30.8866 136.685 31.8997C136.034 32.9128 135.077 33.7061 133.814 34.2796C132.551 34.8531 131.053 35.1398 129.321 35.1398C127.244 35.1398 125.531 34.7479 124.181 33.9642C123.224 33.4003 122.444 32.65 121.841 31.7133C121.248 30.7671 120.951 29.8496 120.951 28.9607C120.951 28.4446 121.128 28.0049 121.482 27.6417C121.846 27.269 122.305 27.0826 122.86 27.0826C123.31 27.0826 123.688 27.226 123.994 27.5127C124.31 27.7994 124.578 28.2247 124.798 28.7887C125.066 29.4577 125.353 30.0168 125.66 30.466C125.976 30.9153 126.416 31.288 126.98 31.5843C127.545 31.871 128.287 32.0144 129.206 32.0144C130.469 32.0144 131.493 31.7229 132.278 31.1399C133.072 30.5473 133.469 29.8113 133.469 28.932C133.469 28.2343 133.254 27.6704 132.823 27.2403C132.402 26.8006 131.852 26.4661 131.173 26.2367C130.503 26.0073 129.603 25.7636 128.474 25.5056C126.961 25.1519 125.693 24.7409 124.669 24.2726C123.655 23.7947 122.846 23.1496 122.243 22.3371C121.65 21.5152 121.353 20.4973 121.353 19.2834C121.353 18.1269 121.669 17.0995 122.3 16.201C122.932 15.3026 123.846 14.6145 125.042 14.1366C126.239 13.6491 127.646 13.4054 129.263 13.4054C130.555 13.4054 131.67 13.5679 132.608 13.8928C133.556 14.2082 134.34 14.6336 134.963 15.1688C135.585 15.6945 136.039 16.2488 136.326 16.8319C136.614 17.4149 136.757 17.9836 136.757 18.5379C136.757 19.0445 136.575 19.5033 136.212 19.9142C135.857 20.3157 135.412 20.5164 134.876 20.5164C134.388 20.5164 134.015 20.3969 133.757 20.158C133.508 19.9095 133.235 19.508 132.938 18.9537C132.555 18.1604 132.096 17.5439 131.56 17.1043C131.024 16.655 130.163 16.4304 128.976 16.4304C127.875 16.4304 126.985 16.6742 126.306 17.1616C125.636 17.6395 125.301 18.2177 125.301 18.8963C125.301 19.3169 125.416 19.6801 125.645 19.9859C125.875 20.2918 126.191 20.5546 126.593 20.7744C126.995 20.9943 127.402 21.1663 127.813 21.2906C128.225 21.4148 128.904 21.5964 129.852 21.8354C131.039 22.1125 132.11 22.4184 133.068 22.7529C134.034 23.0874 134.852 23.4936 135.522 23.9715C136.202 24.4494 136.728 25.0563 137.102 25.7923C137.484 26.5187 137.676 27.4123 137.676 28.4732Z" fill="white"/>
<path d="M154.961 17.2763H150.309V32.5449C150.309 33.4242 150.113 34.0789 149.721 34.509C149.328 34.9295 148.821 35.1398 148.199 35.1398C147.567 35.1398 147.05 34.9248 146.648 34.4947C146.256 34.0646 146.06 33.4146 146.06 32.5449V17.2763H141.408C140.681 17.2763 140.14 17.1186 139.786 16.8032C139.432 16.4782 139.255 16.0529 139.255 15.5272C139.255 14.9824 139.437 14.5523 139.801 14.2369C140.174 13.9215 140.71 13.7638 141.408 13.7638H154.961C155.698 13.7638 156.243 13.9263 156.597 14.2513C156.961 14.5762 157.143 15.0015 157.143 15.5272C157.143 16.0529 156.961 16.4782 156.597 16.8032C156.234 17.1186 155.688 17.2763 154.961 17.2763Z" fill="white"/>
<path fill-rule="evenodd" clip-rule="evenodd" d="M73.7009 25.1327C73.4211 22.9766 73.1364 20.7831 74.5441 19.9867C74.6074 19.9509 74.6698 19.9182 74.7288 19.8873C75.1906 19.6453 75.4444 19.5122 74.3109 18.8423C73.0875 18.2273 72.9648 14.4318 72.3537 11.2774C72.3089 11.0461 72.2648 10.8183 72.2212 10.5954C72.0576 9.75939 72.4499 8.65167 73.2735 8.86915C73.8469 9.29534 74.1793 10.7767 74.5606 12.4762C75.1192 14.9657 75.7828 17.923 77.4626 18.7171C79.0168 19.581 78.6688 19.7525 78.0356 20.0646C77.9547 20.1045 77.8692 20.1466 77.7823 20.1928C75.852 21.2198 76.2424 24.0483 76.6261 26.8286C76.9776 29.3754 77.3235 31.8817 75.8749 32.9256C71.9437 35.8803 64.1723 35.8835 60.2411 32.9256C58.79 31.8843 59.1361 29.3754 59.4877 26.8263C59.8712 24.046 60.2613 21.2177 58.3337 20.1928C58.2735 20.1609 58.2123 20.1301 58.152 20.0999C57.5692 19.8075 57.0843 19.5642 58.6534 18.7171C60.3302 17.9291 60.9931 14.9699 61.5512 12.4788C61.9326 10.776 62.2651 9.29179 62.8389 8.86915C63.7635 8.61233 64.1693 9.92141 63.9721 10.8606C63.9438 10.9954 63.9152 11.1319 63.8864 11.2695C63.2254 14.4273 63.0417 18.2312 61.819 18.8423C60.6746 19.4992 61.0283 19.6879 61.4533 19.9146C61.4972 19.9381 61.5419 19.9619 61.5858 19.9867C62.9916 20.7815 62.7071 22.9748 62.4274 25.1309C62.171 27.1078 61.3061 29.5869 62.3643 30.3945C65.2312 32.6883 70.8987 32.6858 73.7656 30.3945C74.8221 29.5849 73.9573 27.1078 73.7009 25.1327Z" fill="#FF842C"/>
<mask id="path-3-inside-1_1530_3756" fill="white">
<path d="M65.1192 16.3791C65.2917 16.3328 65.3196 15.8766 65.1815 15.3602C65.0433 14.8438 64.7915 14.4626 64.619 14.5089C64.4465 14.5552 64.4186 15.0114 64.5568 15.5278C64.6949 16.0443 64.9467 16.4254 65.1192 16.3791Z"/>
</mask>
<path d="M65.1192 16.3791C65.2917 16.3328 65.3196 15.8766 65.1815 15.3602C65.0433 14.8438 64.7915 14.4626 64.619 14.5089C64.4465 14.5552 64.4186 15.0114 64.5568 15.5278C64.6949 16.0443 64.9467 16.4254 65.1192 16.3791Z" fill="white"/>
<path d="M64.5186 15.5381C64.5739 15.7447 64.5876 15.912 64.582 16.0046C64.5789 16.0546 64.5724 16.0449 64.5911 16.0016C64.6059 15.9672 64.6955 15.7822 64.9419 15.7161L65.2966 17.0421C65.6292 16.9528 65.787 16.6934 65.8512 16.5443C65.9193 16.3863 65.9435 16.2216 65.9517 16.0873C65.9686 15.811 65.9272 15.492 65.8443 15.1823L64.5186 15.5381ZM64.9419 15.7161C65.1883 15.65 65.3582 15.7653 65.3882 15.7877C65.426 15.8158 65.4252 15.8274 65.3976 15.7856C65.3465 15.7083 65.2749 15.5566 65.2196 15.3499L63.8939 15.7057C63.9768 16.0155 64.1002 16.3125 64.2526 16.5433C64.3268 16.6556 64.43 16.7861 64.5678 16.8888C64.6979 16.9857 64.964 17.1313 65.2966 17.0421L64.9419 15.7161ZM65.2196 15.3499C65.1643 15.1433 65.1506 14.976 65.1563 14.8835C65.1593 14.8334 65.1658 14.8431 65.1471 14.8864C65.1323 14.9208 65.0427 15.1058 64.7963 15.1719L64.4416 13.846C64.109 13.9352 63.9512 14.1946 63.887 14.3437C63.8189 14.5017 63.7947 14.6664 63.7865 14.8007C63.7696 15.077 63.8111 15.396 63.8939 15.7057L65.2196 15.3499ZM64.7963 15.1719C64.55 15.2381 64.38 15.1227 64.35 15.1004C64.3122 15.0722 64.313 15.0606 64.3406 15.1024C64.3917 15.1797 64.4633 15.3314 64.5186 15.5381L65.8443 15.1823C65.7614 14.8725 65.6381 14.5755 65.4856 14.3447C65.4114 14.2325 65.3082 14.102 65.1704 13.9992C65.0403 13.9023 64.7742 13.7567 64.4416 13.846L64.7963 15.1719Z" fill="white" mask="url(#path-3-inside-1_1530_3756)"/>
<mask id="path-5-inside-2_1530_3756" fill="white">
<path d="M71.6775 15.53C71.8157 15.0135 71.7878 14.5574 71.6153 14.5111C71.4428 14.4648 71.191 14.8459 71.0529 15.3623C70.9147 15.8787 70.9426 16.3349 71.1151 16.3812C71.2876 16.4275 71.5394 16.0464 71.6775 15.53Z"/>
</mask>
<path d="M71.6775 15.53C71.8157 15.0135 71.7878 14.5574 71.6153 14.5111C71.4428 14.4648 71.191 14.8459 71.0529 15.3623C70.9147 15.8787 70.9426 16.3349 71.1151 16.3812C71.2876 16.4275 71.5394 16.0464 71.6775 15.53Z" fill="white"/>
<path d="M71.438 15.1741C71.1916 15.1079 71.102 14.923 71.0872 14.8885C71.0685 14.8452 71.075 14.8356 71.0781 14.8856C71.0837 14.9781 71.07 15.1454 71.0147 15.3521L72.3404 15.7079C72.4232 15.3981 72.4647 15.0791 72.4478 14.8029C72.4396 14.6685 72.4154 14.5038 72.3473 14.3458C72.2831 14.1967 72.1253 13.9373 71.7927 13.8481L71.438 15.1741ZM71.0147 15.3521C70.9594 15.5587 70.8878 15.7105 70.8367 15.7878C70.8091 15.8296 70.8083 15.8179 70.8461 15.7898C70.8761 15.7674 71.0461 15.6521 71.2924 15.7182L70.9377 17.0442C71.2703 17.1335 71.5364 16.9879 71.6665 16.8909C71.8043 16.7882 71.9075 16.6577 71.9817 16.5454C72.1342 16.3146 72.2575 16.0176 72.3404 15.7079L71.0147 15.3521ZM71.2924 15.7182C71.5388 15.7843 71.6284 15.9693 71.6432 16.0037C71.6619 16.047 71.6554 16.0567 71.6524 16.0067C71.6467 15.9142 71.6604 15.7469 71.7157 15.5402L70.39 15.1844C70.3072 15.4942 70.2657 15.8132 70.2826 16.0894C70.2908 16.2238 70.315 16.3884 70.3831 16.5464C70.4473 16.6956 70.6051 16.9549 70.9377 17.0442L71.2924 15.7182ZM71.7157 15.5402C71.771 15.3335 71.8426 15.1818 71.8937 15.1045C71.9213 15.0627 71.9221 15.0743 71.8843 15.1025C71.8543 15.1249 71.6843 15.2402 71.438 15.1741L71.7927 13.8481C71.4601 13.7588 71.194 13.9044 71.0639 14.0014C70.9261 14.1041 70.8229 14.2346 70.7487 14.3468C70.5962 14.5776 70.4729 14.8746 70.39 15.1844L71.7157 15.5402Z" fill="white" mask="url(#path-5-inside-2_1530_3756)"/>
<path d="M77.4674 3.39402C77.2405 4.69024 76.5983 5.65757 76.0334 5.56083C75.4732 5.45926 75.2028 4.32749 75.4346 3.03128C75.6616 1.73506 76.3038 0.762896 76.8687 0.864465C77.4288 0.966034 77.6992 2.09781 77.4674 3.39402Z" fill="white"/>
<path d="M59.9643 5.56083C59.4042 5.65757 58.762 4.69024 58.5302 3.39402C58.2985 2.09781 58.5689 0.966034 59.1338 0.864465C59.6939 0.762896 60.3361 1.73506 60.5679 3.03128C60.7997 4.32749 60.5293 5.45926 59.9643 5.56083Z" fill="white"/>
</svg>
