<svg width="240" height="240" viewBox="0 0 240 240" fill="none" xmlns="http://www.w3.org/2000/svg">
<g clip-path="url(#clip0_1325_20582)">
<path d="M22.1668 14.92H14.9199V22.1669H22.1668V14.92Z" fill="white"/>
<path d="M29.4129 14.9202H22.166V22.1671H29.4129V14.9202Z" fill="white"/>
<path d="M36.661 14.9202H29.4141V22.1671H36.661V14.9202Z" fill="white"/>
<path d="M43.907 14.92H36.6602V22.1669H43.907V14.92Z" fill="white"/>
<path d="M51.1551 14.92H43.9082V22.1669H51.1551V14.92Z" fill="white"/>
<path d="M58.4012 14.9202H51.1543V22.1671H58.4012V14.9202Z" fill="white"/>
<path d="M65.6492 14.9202H58.4023V22.1671H65.6492V14.9202Z" fill="white"/>
<path d="M80.1414 14.9202H72.8945V22.1671H80.1414V14.9202Z" fill="white"/>
<path d="M87.3895 14.9202H80.1426V22.1671H87.3895V14.9202Z" fill="white"/>
<path d="M94.6356 14.92H87.3887V22.1669H94.6356V14.92Z" fill="white"/>
<path d="M101.884 14.9202H94.6367V22.1671H101.884V14.9202Z" fill="white"/>
<path d="M116.376 14.9202H109.129V22.1671H116.376V14.9202Z" fill="white"/>
<path d="M123.624 14.9202H116.377V22.1671H123.624V14.9202Z" fill="white"/>
<path d="M152.61 14.9202H145.363V22.1671H152.61V14.9202Z" fill="white"/>
<path d="M181.598 14.92H174.352V22.1669H181.598V14.92Z" fill="white"/>
<path d="M188.845 14.9202H181.598V22.1671H188.845V14.9202Z" fill="white"/>
<path d="M196.093 14.9202H188.846V22.1671H196.093V14.9202Z" fill="white"/>
<path d="M203.339 14.92H196.092V22.1669H203.339V14.92Z" fill="white"/>
<path d="M210.587 14.92H203.34V22.1669H210.587V14.92Z" fill="white"/>
<path d="M217.833 14.9202H210.586V22.1671H217.833V14.9202Z" fill="white"/>
<path d="M225.081 14.9202H217.834V22.1671H225.081V14.9202Z" fill="white"/>
<path d="M22.1668 22.167H14.9199V29.4139H22.1668V22.167Z" fill="white"/>
<path d="M65.6492 22.167H58.4023V29.4139H65.6492V22.167Z" fill="white"/>
<path d="M101.884 22.167H94.6367V29.4139H101.884V22.167Z" fill="white"/>
<path d="M109.13 22.167H101.883V29.4139H109.13V22.167Z" fill="white"/>
<path d="M123.624 22.167H116.377V29.4139H123.624V22.167Z" fill="white"/>
<path d="M145.364 22.167H138.117V29.4139H145.364V22.167Z" fill="white"/>
<path d="M159.858 22.167H152.611V29.4139H159.858V22.167Z" fill="white"/>
<path d="M181.598 22.167H174.352V29.4139H181.598V22.167Z" fill="white"/>
<path d="M225.081 22.167H217.834V29.4139H225.081V22.167Z" fill="white"/>
<path d="M22.1668 29.4139H14.9199V36.6608H22.1668V29.4139Z" fill="white"/>
<path d="M36.661 29.4138H29.4141V36.6607H36.661V29.4138Z" fill="white"/>
<path d="M43.907 29.4139H36.6602V36.6608H43.907V29.4139Z" fill="white"/>
<path d="M51.1551 29.4139H43.9082V36.6608H51.1551V29.4139Z" fill="white"/>
<path d="M65.6492 29.4138H58.4023V36.6607H65.6492V29.4138Z" fill="white"/>
<path d="M87.3895 29.4138H80.1426V36.6607H87.3895V29.4138Z" fill="white"/>
<path d="M101.884 29.4138H94.6367V36.6607H101.884V29.4138Z" fill="white"/>
<path d="M116.376 29.4138H109.129V36.6607H116.376V29.4138Z" fill="white"/>
<path d="M123.624 29.4138H116.377V36.6607H123.624V29.4138Z" fill="white"/>
<path d="M138.118 29.4138H130.871V36.6607H138.118V29.4138Z" fill="white"/>
<path d="M152.61 29.4138H145.363V36.6607H152.61V29.4138Z" fill="white"/>
<path d="M159.858 29.4139H152.611V36.6608H159.858V29.4139Z" fill="white"/>
<path d="M181.598 29.4139H174.352V36.6608H181.598V29.4139Z" fill="white"/>
<path d="M196.093 29.4138H188.846V36.6607H196.093V29.4138Z" fill="white"/>
<path d="M203.339 29.4139H196.092V36.6608H203.339V29.4139Z" fill="white"/>
<path d="M210.587 29.4139H203.34V36.6608H210.587V29.4139Z" fill="white"/>
<path d="M225.081 29.4138H217.834V36.6607H225.081V29.4138Z" fill="white"/>
<path d="M22.1668 36.6608H14.9199V43.9077H22.1668V36.6608Z" fill="white"/>
<path d="M36.661 36.6608H29.4141V43.9077H36.661V36.6608Z" fill="white"/>
<path d="M43.907 36.6608H36.6602V43.9077H43.907V36.6608Z" fill="white"/>
<path d="M51.1551 36.6608H43.9082V43.9077H51.1551V36.6608Z" fill="white"/>
<path d="M65.6492 36.6608H58.4023V43.9077H65.6492V36.6608Z" fill="white"/>
<path d="M94.6356 36.6608H87.3887V43.9077H94.6356V36.6608Z" fill="white"/>
<path d="M101.884 36.6608H94.6367V43.9077H101.884V36.6608Z" fill="white"/>
<path d="M109.13 36.6608H101.883V43.9077H109.13V36.6608Z" fill="white"/>
<path d="M116.376 36.6608H109.129V43.9077H116.376V36.6608Z" fill="white"/>
<path d="M145.364 36.6608H138.117V43.9077H145.364V36.6608Z" fill="white"/>
<path d="M159.858 36.6608H152.611V43.9077H159.858V36.6608Z" fill="white"/>
<path d="M167.104 36.6608H159.857V43.9077H167.104V36.6608Z" fill="white"/>
<path d="M181.598 36.6608H174.352V43.9077H181.598V36.6608Z" fill="white"/>
<path d="M196.093 36.6608H188.846V43.9077H196.093V36.6608Z" fill="white"/>
<path d="M203.339 36.6608H196.092V43.9077H203.339V36.6608Z" fill="white"/>
<path d="M210.587 36.6608H203.34V43.9077H210.587V36.6608Z" fill="white"/>
<path d="M225.081 36.6608H217.834V43.9077H225.081V36.6608Z" fill="white"/>
<path d="M22.1668 43.9077H14.9199V51.1546H22.1668V43.9077Z" fill="white"/>
<path d="M36.661 43.9077H29.4141V51.1546H36.661V43.9077Z" fill="white"/>
<path d="M43.907 43.9077H36.6602V51.1546H43.907V43.9077Z" fill="white"/>
<path d="M51.1551 43.9077H43.9082V51.1546H51.1551V43.9077Z" fill="white"/>
<path d="M65.6492 43.9077H58.4023V51.1546H65.6492V43.9077Z" fill="white"/>
<path d="M94.6356 43.9077H87.3887V51.1546H94.6356V43.9077Z" fill="white"/>
<path d="M101.884 43.9077H94.6367V51.1546H101.884V43.9077Z" fill="white"/>
<path d="M109.13 43.9077H101.883V51.1546H109.13V43.9077Z" fill="white"/>
<path d="M116.376 43.9077H109.129V51.1546H116.376V43.9077Z" fill="white"/>
<path d="M123.624 43.9077H116.377V51.1546H123.624V43.9077Z" fill="white"/>
<path d="M138.118 43.9077H130.871V51.1546H138.118V43.9077Z" fill="white"/>
<path d="M152.61 43.9077H145.363V51.1546H152.61V43.9077Z" fill="white"/>
<path d="M159.858 43.9077H152.611V51.1546H159.858V43.9077Z" fill="white"/>
<path d="M181.598 43.9077H174.352V51.1546H181.598V43.9077Z" fill="white"/>
<path d="M196.093 43.9077H188.846V51.1546H196.093V43.9077Z" fill="white"/>
<path d="M203.339 43.9077H196.092V51.1546H203.339V43.9077Z" fill="white"/>
<path d="M210.587 43.9077H203.34V51.1546H210.587V43.9077Z" fill="white"/>
<path d="M225.081 43.9077H217.834V51.1546H225.081V43.9077Z" fill="white"/>
<path d="M22.1668 51.1545H14.9199V58.4014H22.1668V51.1545Z" fill="white"/>
<path d="M65.6492 51.1545H58.4023V58.4014H65.6492V51.1545Z" fill="white"/>
<path d="M87.3895 51.1545H80.1426V58.4014H87.3895V51.1545Z" fill="white"/>
<path d="M101.884 51.1545H94.6367V58.4014H101.884V51.1545Z" fill="white"/>
<path d="M152.61 51.1545H145.363V58.4014H152.61V51.1545Z" fill="white"/>
<path d="M181.598 51.1545H174.352V58.4014H181.598V51.1545Z" fill="white"/>
<path d="M225.081 51.1545H217.834V58.4014H225.081V51.1545Z" fill="white"/>
<path d="M22.1668 58.4015H14.9199V65.6484H22.1668V58.4015Z" fill="white"/>
<path d="M29.4129 58.4014H22.166V65.6483H29.4129V58.4014Z" fill="white"/>
<path d="M36.661 58.4014H29.4141V65.6483H36.661V58.4014Z" fill="white"/>
<path d="M43.907 58.4015H36.6602V65.6484H43.907V58.4015Z" fill="white"/>
<path d="M51.1551 58.4015H43.9082V65.6484H51.1551V58.4015Z" fill="white"/>
<path d="M58.4012 58.4014H51.1543V65.6483H58.4012V58.4014Z" fill="white"/>
<path d="M65.6492 58.4014H58.4023V65.6483H65.6492V58.4014Z" fill="white"/>
<path d="M80.1414 58.4014H72.8945V65.6483H80.1414V58.4014Z" fill="white"/>
<path d="M94.6356 58.4015H87.3887V65.6484H94.6356V58.4015Z" fill="white"/>
<path d="M109.13 58.4014H101.883V65.6483H109.13V58.4014Z" fill="white"/>
<path d="M123.624 58.4014H116.377V65.6483H123.624V58.4014Z" fill="white"/>
<path d="M138.118 58.4014H130.871V65.6483H138.118V58.4014Z" fill="white"/>
<path d="M152.61 58.4014H145.363V65.6483H152.61V58.4014Z" fill="white"/>
<path d="M167.104 58.4014H159.857V65.6483H167.104V58.4014Z" fill="white"/>
<path d="M181.598 58.4015H174.352V65.6484H181.598V58.4015Z" fill="white"/>
<path d="M188.845 58.4014H181.598V65.6483H188.845V58.4014Z" fill="white"/>
<path d="M196.093 58.4014H188.846V65.6483H196.093V58.4014Z" fill="white"/>
<path d="M203.339 58.4015H196.092V65.6484H203.339V58.4015Z" fill="white"/>
<path d="M210.587 58.4015H203.34V65.6484H210.587V58.4015Z" fill="white"/>
<path d="M217.833 58.4014H210.586V65.6483H217.833V58.4014Z" fill="white"/>
<path d="M225.081 58.4014H217.834V65.6483H225.081V58.4014Z" fill="white"/>
<path d="M80.1414 65.6483H72.8945V72.8952H80.1414V65.6483Z" fill="white"/>
<path d="M87.3895 65.6483H80.1426V72.8952H87.3895V65.6483Z" fill="white"/>
<path d="M116.376 65.6483H109.129V72.8952H116.376V65.6483Z" fill="white"/>
<path d="M123.624 65.6483H116.377V72.8952H123.624V65.6483Z" fill="white"/>
<path d="M138.118 65.6483H130.871V72.8952H138.118V65.6483Z" fill="white"/>
<path d="M159.858 65.6483H152.611V72.8952H159.858V65.6483Z" fill="white"/>
<path d="M22.1668 72.8953H14.9199V80.1422H22.1668V72.8953Z" fill="white"/>
<path d="M29.4129 72.8953H22.166V80.1422H29.4129V72.8953Z" fill="white"/>
<path d="M43.907 72.8953H36.6602V80.1422H43.907V72.8953Z" fill="white"/>
<path d="M51.1551 72.8953H43.9082V80.1422H51.1551V72.8953Z" fill="white"/>
<path d="M65.6492 72.8953H58.4023V80.1422H65.6492V72.8953Z" fill="white"/>
<path d="M87.3895 72.8953H80.1426V80.1422H87.3895V72.8953Z" fill="white"/>
<path d="M109.13 72.8953H101.883V80.1422H109.13V72.8953Z" fill="white"/>
<path d="M130.87 72.8953H123.623V80.1422H130.87V72.8953Z" fill="white"/>
<path d="M138.118 72.8953H130.871V80.1422H138.118V72.8953Z" fill="white"/>
<path d="M145.364 72.8953H138.117V80.1422H145.364V72.8953Z" fill="white"/>
<path d="M152.61 72.8953H145.363V80.1422H152.61V72.8953Z" fill="white"/>
<path d="M181.598 72.8953H174.352V80.1422H181.598V72.8953Z" fill="white"/>
<path d="M225.081 72.8953H217.834V80.1422H225.081V72.8953Z" fill="white"/>
<path d="M22.1668 80.1421H14.9199V87.389H22.1668V80.1421Z" fill="white"/>
<path d="M29.4129 80.1421H22.166V87.389H29.4129V80.1421Z" fill="white"/>
<path d="M36.661 80.1421H29.4141V87.389H36.661V80.1421Z" fill="white"/>
<path d="M43.907 80.1421H36.6602V87.389H43.907V80.1421Z" fill="white"/>
<path d="M51.1551 80.1421H43.9082V87.389H51.1551V80.1421Z" fill="white"/>
<path d="M72.8953 80.1421H65.6484V87.389H72.8953V80.1421Z" fill="white"/>
<path d="M80.1414 80.1421H72.8945V87.389H80.1414V80.1421Z" fill="white"/>
<path d="M94.6356 80.1421H87.3887V87.389H94.6356V80.1421Z" fill="white"/>
<path d="M101.884 80.1421H94.6367V87.389H101.884V80.1421Z" fill="white"/>
<path d="M116.376 80.1421H109.129V87.389H116.376V80.1421Z" fill="white"/>
<path d="M130.87 80.1421H123.623V87.389H130.87V80.1421Z" fill="white"/>
<path d="M145.364 80.1421H138.117V87.389H145.364V80.1421Z" fill="white"/>
<path d="M152.61 80.1421H145.363V87.389H152.61V80.1421Z" fill="white"/>
<path d="M159.858 80.1421H152.611V87.389H159.858V80.1421Z" fill="white"/>
<path d="M174.352 80.1421H167.105V87.389H174.352V80.1421Z" fill="white"/>
<path d="M188.845 80.1421H181.598V87.389H188.845V80.1421Z" fill="white"/>
<path d="M196.093 80.1421H188.846V87.389H196.093V80.1421Z" fill="white"/>
<path d="M210.587 80.1421H203.34V87.389H210.587V80.1421Z" fill="white"/>
<path d="M217.833 80.1421H210.586V87.389H217.833V80.1421Z" fill="white"/>
<path d="M22.1668 87.389H14.9199V94.6359H22.1668V87.389Z" fill="white"/>
<path d="M36.661 87.389H29.4141V94.6359H36.661V87.389Z" fill="white"/>
<path d="M51.1551 87.389H43.9082V94.6359H51.1551V87.389Z" fill="white"/>
<path d="M65.6492 87.389H58.4023V94.6359H65.6492V87.389Z" fill="white"/>
<path d="M87.3895 87.389H80.1426V94.6359H87.3895V87.389Z" fill="white"/>
<path d="M101.884 87.389H94.6367V94.6359H101.884V87.389Z" fill="white"/>
<path d="M116.376 87.389H109.129V94.6359H116.376V87.389Z" fill="white"/>
<path d="M130.87 87.389H123.623V94.6359H130.87V87.389Z" fill="white"/>
<path d="M138.118 87.389H130.871V94.6359H138.118V87.389Z" fill="white"/>
<path d="M174.352 87.389H167.105V94.6359H174.352V87.389Z" fill="white"/>
<path d="M196.093 87.389H188.846V94.6359H196.093V87.389Z" fill="white"/>
<path d="M210.587 87.389H203.34V94.6359H210.587V87.389Z" fill="white"/>
<path d="M22.1668 94.6359H14.9199V101.883H22.1668V94.6359Z" fill="white"/>
<path d="M36.661 94.6359H29.4141V101.883H36.661V94.6359Z" fill="white"/>
<path d="M72.8953 94.6359H65.6484V101.883H72.8953V94.6359Z" fill="white"/>
<path d="M101.884 94.6359H94.6367V101.883H101.884V94.6359Z" fill="white"/>
<path d="M123.624 94.6359H116.377V101.883H123.624V94.6359Z" fill="white"/>
<path d="M145.364 94.6359H138.117V101.883H145.364V94.6359Z" fill="white"/>
<path d="M152.61 94.6359H145.363V101.883H152.61V94.6359Z" fill="white"/>
<path d="M167.104 94.6359H159.857V101.883H167.104V94.6359Z" fill="white"/>
<path d="M196.093 94.6359H188.846V101.883H196.093V94.6359Z" fill="white"/>
<path d="M203.339 94.6359H196.092V101.883H203.339V94.6359Z" fill="white"/>
<path d="M225.081 94.6359H217.834V101.883H225.081V94.6359Z" fill="white"/>
<path d="M22.1668 101.883H14.9199V109.13H22.1668V101.883Z" fill="white"/>
<path d="M36.661 101.883H29.4141V109.13H36.661V101.883Z" fill="white"/>
<path d="M51.1551 101.883H43.9082V109.13H51.1551V101.883Z" fill="white"/>
<path d="M58.4012 101.883H51.1543V109.13H58.4012V101.883Z" fill="white"/>
<path d="M65.6492 101.883H58.4023V109.13H65.6492V101.883Z" fill="white"/>
<path d="M87.3895 101.883H80.1426V109.13H87.3895V101.883Z" fill="white"/>
<path d="M94.6356 101.883H87.3887V109.13H94.6356V101.883Z" fill="white"/>
<path d="M101.884 101.883H94.6367V109.13H101.884V101.883Z" fill="white"/>
<path d="M138.118 101.883H130.871V109.13H138.118V101.883Z" fill="white"/>
<path d="M159.858 101.883H152.611V109.13H159.858V101.883Z" fill="white"/>
<path d="M167.104 101.883H159.857V109.13H167.104V101.883Z" fill="white"/>
<path d="M181.598 101.883H174.352V109.13H181.598V101.883Z" fill="white"/>
<path d="M225.081 101.883H217.834V109.13H225.081V101.883Z" fill="white"/>
<path d="M43.907 109.13H36.6602V116.377H43.907V109.13Z" fill="white"/>
<path d="M58.4012 109.13H51.1543V116.377H58.4012V109.13Z" fill="white"/>
<path d="M72.8953 109.13H65.6484V116.377H72.8953V109.13Z" fill="white"/>
<path d="M80.1414 109.13H72.8945V116.377H80.1414V109.13Z" fill="white"/>
<path d="M94.6356 109.13H87.3887V116.377H94.6356V109.13Z" fill="white"/>
<path d="M101.884 109.13H94.6367V116.377H101.884V109.13Z" fill="white"/>
<path d="M116.376 109.13H109.129V116.377H116.376V109.13Z" fill="white"/>
<path d="M123.624 109.13H116.377V116.377H123.624V109.13Z" fill="white"/>
<path d="M130.87 109.13H123.623V116.377H130.87V109.13Z" fill="white"/>
<path d="M138.118 109.13H130.871V116.377H138.118V109.13Z" fill="white"/>
<path d="M145.364 109.13H138.117V116.377H145.364V109.13Z" fill="white"/>
<path d="M152.61 109.13H145.363V116.377H152.61V109.13Z" fill="white"/>
<path d="M181.598 109.13H174.352V116.377H181.598V109.13Z" fill="white"/>
<path d="M188.845 109.13H181.598V116.377H188.845V109.13Z" fill="white"/>
<path d="M196.093 109.13H188.846V116.377H196.093V109.13Z" fill="white"/>
<path d="M203.339 109.13H196.092V116.377H203.339V109.13Z" fill="white"/>
<path d="M210.587 109.13H203.34V116.377H210.587V109.13Z" fill="white"/>
<path d="M217.833 109.13H210.586V116.377H217.833V109.13Z" fill="white"/>
<path d="M225.081 109.13H217.834V116.377H225.081V109.13Z" fill="white"/>
<path d="M22.1668 116.377H14.9199V123.623H22.1668V116.377Z" fill="white"/>
<path d="M29.4129 116.377H22.166V123.623H29.4129V116.377Z" fill="white"/>
<path d="M36.661 116.377H29.4141V123.623H36.661V116.377Z" fill="white"/>
<path d="M43.907 116.377H36.6602V123.623H43.907V116.377Z" fill="white"/>
<path d="M65.6492 116.377H58.4023V123.623H65.6492V116.377Z" fill="white"/>
<path d="M80.1414 116.377H72.8945V123.623H80.1414V116.377Z" fill="white"/>
<path d="M109.13 116.377H101.883V123.623H109.13V116.377Z" fill="white"/>
<path d="M116.376 116.377H109.129V123.623H116.376V116.377Z" fill="white"/>
<path d="M130.87 116.377H123.623V123.623H130.87V116.377Z" fill="white"/>
<path d="M159.858 116.377H152.611V123.623H159.858V116.377Z" fill="white"/>
<path d="M181.598 116.377H174.352V123.623H181.598V116.377Z" fill="white"/>
<path d="M196.093 116.377H188.846V123.623H196.093V116.377Z" fill="white"/>
<path d="M210.587 116.377H203.34V123.623H210.587V116.377Z" fill="white"/>
<path d="M225.081 116.377H217.834V123.623H225.081V116.377Z" fill="white"/>
<path d="M22.1668 123.623H14.9199V130.87H22.1668V123.623Z" fill="white"/>
<path d="M58.4012 123.624H51.1543V130.87H58.4012V123.624Z" fill="white"/>
<path d="M80.1414 123.624H72.8945V130.87H80.1414V123.624Z" fill="white"/>
<path d="M87.3895 123.624H80.1426V130.87H87.3895V123.624Z" fill="white"/>
<path d="M94.6356 123.623H87.3887V130.87H94.6356V123.623Z" fill="white"/>
<path d="M101.884 123.624H94.6367V130.87H101.884V123.624Z" fill="white"/>
<path d="M109.13 123.624H101.883V130.87H109.13V123.624Z" fill="white"/>
<path d="M130.87 123.624H123.623V130.87H130.87V123.624Z" fill="white"/>
<path d="M159.858 123.623H152.611V130.87H159.858V123.623Z" fill="white"/>
<path d="M174.352 123.624H167.105V130.87H174.352V123.624Z" fill="white"/>
<path d="M181.598 123.623H174.352V130.87H181.598V123.623Z" fill="white"/>
<path d="M188.845 123.624H181.598V130.87H188.845V123.624Z" fill="white"/>
<path d="M196.093 123.624H188.846V130.87H196.093V123.624Z" fill="white"/>
<path d="M210.587 123.623H203.34V130.87H210.587V123.623Z" fill="white"/>
<path d="M225.081 123.624H217.834V130.87H225.081V123.624Z" fill="white"/>
<path d="M22.1668 130.87H14.9199V138.117H22.1668V130.87Z" fill="white"/>
<path d="M29.4129 130.87H22.166V138.117H29.4129V130.87Z" fill="white"/>
<path d="M43.907 130.87H36.6602V138.117H43.907V130.87Z" fill="white"/>
<path d="M51.1551 130.87H43.9082V138.117H51.1551V130.87Z" fill="white"/>
<path d="M58.4012 130.87H51.1543V138.117H58.4012V130.87Z" fill="white"/>
<path d="M65.6492 130.87H58.4023V138.117H65.6492V130.87Z" fill="white"/>
<path d="M80.1414 130.87H72.8945V138.117H80.1414V130.87Z" fill="white"/>
<path d="M87.3895 130.87H80.1426V138.117H87.3895V130.87Z" fill="white"/>
<path d="M94.6356 130.87H87.3887V138.117H94.6356V130.87Z" fill="white"/>
<path d="M101.884 130.87H94.6367V138.117H101.884V130.87Z" fill="white"/>
<path d="M116.376 130.87H109.129V138.117H116.376V130.87Z" fill="white"/>
<path d="M159.858 130.87H152.611V138.117H159.858V130.87Z" fill="white"/>
<path d="M167.104 130.87H159.857V138.117H167.104V130.87Z" fill="white"/>
<path d="M203.339 130.87H196.092V138.117H203.339V130.87Z" fill="white"/>
<path d="M22.1668 138.117H14.9199V145.364H22.1668V138.117Z" fill="white"/>
<path d="M43.907 138.117H36.6602V145.364H43.907V138.117Z" fill="white"/>
<path d="M51.1551 138.117H43.9082V145.364H51.1551V138.117Z" fill="white"/>
<path d="M72.8953 138.117H65.6484V145.364H72.8953V138.117Z" fill="white"/>
<path d="M94.6356 138.117H87.3887V145.364H94.6356V138.117Z" fill="white"/>
<path d="M130.87 138.117H123.623V145.364H130.87V138.117Z" fill="white"/>
<path d="M138.118 138.117H130.871V145.364H138.118V138.117Z" fill="white"/>
<path d="M145.364 138.117H138.117V145.364H145.364V138.117Z" fill="white"/>
<path d="M152.61 138.117H145.363V145.364H152.61V138.117Z" fill="white"/>
<path d="M159.858 138.117H152.611V145.364H159.858V138.117Z" fill="white"/>
<path d="M167.104 138.117H159.857V145.364H167.104V138.117Z" fill="white"/>
<path d="M174.352 138.117H167.105V145.364H174.352V138.117Z" fill="white"/>
<path d="M196.093 138.117H188.846V145.364H196.093V138.117Z" fill="white"/>
<path d="M210.587 138.117H203.34V145.364H210.587V138.117Z" fill="white"/>
<path d="M217.833 138.117H210.586V145.364H217.833V138.117Z" fill="white"/>
<path d="M22.1668 145.364H14.9199V152.611H22.1668V145.364Z" fill="white"/>
<path d="M29.4129 145.364H22.166V152.611H29.4129V145.364Z" fill="white"/>
<path d="M43.907 145.364H36.6602V152.611H43.907V145.364Z" fill="white"/>
<path d="M58.4012 145.364H51.1543V152.611H58.4012V145.364Z" fill="white"/>
<path d="M65.6492 145.364H58.4023V152.611H65.6492V145.364Z" fill="white"/>
<path d="M80.1414 145.364H72.8945V152.611H80.1414V145.364Z" fill="white"/>
<path d="M87.3895 145.364H80.1426V152.611H87.3895V145.364Z" fill="white"/>
<path d="M101.884 145.364H94.6367V152.611H101.884V145.364Z" fill="white"/>
<path d="M109.13 145.364H101.883V152.611H109.13V145.364Z" fill="white"/>
<path d="M130.87 145.364H123.623V152.611H130.87V145.364Z" fill="white"/>
<path d="M138.118 145.364H130.871V152.611H138.118V145.364Z" fill="white"/>
<path d="M145.364 145.364H138.117V152.611H145.364V145.364Z" fill="white"/>
<path d="M159.858 145.364H152.611V152.611H159.858V145.364Z" fill="white"/>
<path d="M174.352 145.364H167.105V152.611H174.352V145.364Z" fill="white"/>
<path d="M181.598 145.364H174.352V152.611H181.598V145.364Z" fill="white"/>
<path d="M196.093 145.364H188.846V152.611H196.093V145.364Z" fill="white"/>
<path d="M203.339 145.364H196.092V152.611H203.339V145.364Z" fill="white"/>
<path d="M225.081 145.364H217.834V152.611H225.081V145.364Z" fill="white"/>
<path d="M22.1668 152.611H14.9199V159.858H22.1668V152.611Z" fill="white"/>
<path d="M29.4129 152.611H22.166V159.858H29.4129V152.611Z" fill="white"/>
<path d="M36.661 152.611H29.4141V159.858H36.661V152.611Z" fill="white"/>
<path d="M43.907 152.611H36.6602V159.858H43.907V152.611Z" fill="white"/>
<path d="M51.1551 152.611H43.9082V159.858H51.1551V152.611Z" fill="white"/>
<path d="M58.4012 152.611H51.1543V159.858H58.4012V152.611Z" fill="white"/>
<path d="M72.8953 152.611H65.6484V159.858H72.8953V152.611Z" fill="white"/>
<path d="M80.1414 152.611H72.8945V159.858H80.1414V152.611Z" fill="white"/>
<path d="M94.6356 152.611H87.3887V159.858H94.6356V152.611Z" fill="white"/>
<path d="M116.376 152.611H109.129V159.858H116.376V152.611Z" fill="white"/>
<path d="M123.624 152.611H116.377V159.858H123.624V152.611Z" fill="white"/>
<path d="M174.352 152.611H167.105V159.858H174.352V152.611Z" fill="white"/>
<path d="M181.598 152.611H174.352V159.858H181.598V152.611Z" fill="white"/>
<path d="M188.845 152.611H181.598V159.858H188.845V152.611Z" fill="white"/>
<path d="M196.093 152.611H188.846V159.858H196.093V152.611Z" fill="white"/>
<path d="M203.339 152.611H196.092V159.858H203.339V152.611Z" fill="white"/>
<path d="M210.587 152.611H203.34V159.858H210.587V152.611Z" fill="white"/>
<path d="M22.1668 159.858H14.9199V167.105H22.1668V159.858Z" fill="white"/>
<path d="M29.4129 159.858H22.166V167.105H29.4129V159.858Z" fill="white"/>
<path d="M36.661 159.858H29.4141V167.105H36.661V159.858Z" fill="white"/>
<path d="M43.907 159.858H36.6602V167.105H43.907V159.858Z" fill="white"/>
<path d="M51.1551 159.858H43.9082V167.105H51.1551V159.858Z" fill="white"/>
<path d="M65.6492 159.858H58.4023V167.105H65.6492V159.858Z" fill="white"/>
<path d="M72.8953 159.858H65.6484V167.105H72.8953V159.858Z" fill="white"/>
<path d="M80.1414 159.858H72.8945V167.105H80.1414V159.858Z" fill="white"/>
<path d="M116.376 159.858H109.129V167.105H116.376V159.858Z" fill="white"/>
<path d="M123.624 159.858H116.377V167.105H123.624V159.858Z" fill="white"/>
<path d="M138.118 159.858H130.871V167.105H138.118V159.858Z" fill="white"/>
<path d="M145.364 159.858H138.117V167.105H145.364V159.858Z" fill="white"/>
<path d="M152.61 159.858H145.363V167.105H152.61V159.858Z" fill="white"/>
<path d="M167.104 159.858H159.857V167.105H167.104V159.858Z" fill="white"/>
<path d="M174.352 159.858H167.105V167.105H174.352V159.858Z" fill="white"/>
<path d="M181.598 159.858H174.352V167.105H181.598V159.858Z" fill="white"/>
<path d="M188.845 159.858H181.598V167.105H188.845V159.858Z" fill="white"/>
<path d="M196.093 159.858H188.846V167.105H196.093V159.858Z" fill="white"/>
<path d="M203.339 159.858H196.092V167.105H203.339V159.858Z" fill="white"/>
<path d="M210.587 159.858H203.34V167.105H210.587V159.858Z" fill="white"/>
<path d="M217.833 159.858H210.586V167.105H217.833V159.858Z" fill="white"/>
<path d="M80.1414 167.105H72.8945V174.352H80.1414V167.105Z" fill="white"/>
<path d="M94.6356 167.105H87.3887V174.352H94.6356V167.105Z" fill="white"/>
<path d="M101.884 167.105H94.6367V174.352H101.884V167.105Z" fill="white"/>
<path d="M116.376 167.105H109.129V174.352H116.376V167.105Z" fill="white"/>
<path d="M130.87 167.105H123.623V174.352H130.87V167.105Z" fill="white"/>
<path d="M145.364 167.105H138.117V174.352H145.364V167.105Z" fill="white"/>
<path d="M152.61 167.105H145.363V174.352H152.61V167.105Z" fill="white"/>
<path d="M167.104 167.105H159.857V174.352H167.104V167.105Z" fill="white"/>
<path d="M196.093 167.105H188.846V174.352H196.093V167.105Z" fill="white"/>
<path d="M203.339 167.105H196.092V174.352H203.339V167.105Z" fill="white"/>
<path d="M22.1668 174.352H14.9199V181.599H22.1668V174.352Z" fill="white"/>
<path d="M29.4129 174.352H22.166V181.599H29.4129V174.352Z" fill="white"/>
<path d="M36.661 174.352H29.4141V181.599H36.661V174.352Z" fill="white"/>
<path d="M43.907 174.352H36.6602V181.599H43.907V174.352Z" fill="white"/>
<path d="M51.1551 174.352H43.9082V181.599H51.1551V174.352Z" fill="white"/>
<path d="M58.4012 174.352H51.1543V181.599H58.4012V174.352Z" fill="white"/>
<path d="M65.6492 174.352H58.4023V181.599H65.6492V174.352Z" fill="white"/>
<path d="M101.884 174.352H94.6367V181.599H101.884V174.352Z" fill="white"/>
<path d="M116.376 174.352H109.129V181.599H116.376V174.352Z" fill="white"/>
<path d="M130.87 174.352H123.623V181.599H130.87V174.352Z" fill="white"/>
<path d="M159.858 174.352H152.611V181.599H159.858V174.352Z" fill="white"/>
<path d="M167.104 174.352H159.857V181.599H167.104V174.352Z" fill="white"/>
<path d="M181.598 174.352H174.352V181.599H181.598V174.352Z" fill="white"/>
<path d="M196.093 174.352H188.846V181.599H196.093V174.352Z" fill="white"/>
<path d="M203.339 174.352H196.092V181.599H203.339V174.352Z" fill="white"/>
<path d="M22.1668 181.599H14.9199V188.846H22.1668V181.599Z" fill="white"/>
<path d="M65.6492 181.599H58.4023V188.846H65.6492V181.599Z" fill="white"/>
<path d="M101.884 181.599H94.6367V188.846H101.884V181.599Z" fill="white"/>
<path d="M123.624 181.599H116.377V188.846H123.624V181.599Z" fill="white"/>
<path d="M145.364 181.599H138.117V188.846H145.364V181.599Z" fill="white"/>
<path d="M159.858 181.599H152.611V188.846H159.858V181.599Z" fill="white"/>
<path d="M167.104 181.599H159.857V188.846H167.104V181.599Z" fill="white"/>
<path d="M196.093 181.599H188.846V188.846H196.093V181.599Z" fill="white"/>
<path d="M217.833 181.599H210.586V188.846H217.833V181.599Z" fill="white"/>
<path d="M225.081 181.599H217.834V188.846H225.081V181.599Z" fill="white"/>
<path d="M22.1668 188.845H14.9199V196.092H22.1668V188.845Z" fill="white"/>
<path d="M36.661 188.845H29.4141V196.092H36.661V188.845Z" fill="white"/>
<path d="M43.907 188.845H36.6602V196.092H43.907V188.845Z" fill="white"/>
<path d="M51.1551 188.845H43.9082V196.092H51.1551V188.845Z" fill="white"/>
<path d="M65.6492 188.845H58.4023V196.092H65.6492V188.845Z" fill="white"/>
<path d="M80.1414 188.845H72.8945V196.092H80.1414V188.845Z" fill="white"/>
<path d="M87.3895 188.845H80.1426V196.092H87.3895V188.845Z" fill="white"/>
<path d="M130.87 188.845H123.623V196.092H130.87V188.845Z" fill="white"/>
<path d="M145.364 188.845H138.117V196.092H145.364V188.845Z" fill="white"/>
<path d="M159.858 188.845H152.611V196.092H159.858V188.845Z" fill="white"/>
<path d="M167.104 188.845H159.857V196.092H167.104V188.845Z" fill="white"/>
<path d="M174.352 188.845H167.105V196.092H174.352V188.845Z" fill="white"/>
<path d="M181.598 188.845H174.352V196.092H181.598V188.845Z" fill="white"/>
<path d="M188.845 188.845H181.598V196.092H188.845V188.845Z" fill="white"/>
<path d="M196.093 188.845H188.846V196.092H196.093V188.845Z" fill="white"/>
<path d="M203.339 188.845H196.092V196.092H203.339V188.845Z" fill="white"/>
<path d="M217.833 188.845H210.586V196.092H217.833V188.845Z" fill="white"/>
<path d="M225.081 188.845H217.834V196.092H225.081V188.845Z" fill="white"/>
<path d="M22.1668 196.092H14.9199V203.339H22.1668V196.092Z" fill="white"/>
<path d="M36.661 196.092H29.4141V203.339H36.661V196.092Z" fill="white"/>
<path d="M43.907 196.092H36.6602V203.339H43.907V196.092Z" fill="white"/>
<path d="M51.1551 196.092H43.9082V203.339H51.1551V196.092Z" fill="white"/>
<path d="M65.6492 196.092H58.4023V203.339H65.6492V196.092Z" fill="white"/>
<path d="M80.1414 196.092H72.8945V203.339H80.1414V196.092Z" fill="white"/>
<path d="M87.3895 196.092H80.1426V203.339H87.3895V196.092Z" fill="white"/>
<path d="M101.884 196.092H94.6367V203.339H101.884V196.092Z" fill="white"/>
<path d="M109.13 196.092H101.883V203.339H109.13V196.092Z" fill="white"/>
<path d="M116.376 196.092H109.129V203.339H116.376V196.092Z" fill="white"/>
<path d="M130.87 196.092H123.623V203.339H130.87V196.092Z" fill="white"/>
<path d="M138.118 196.092H130.871V203.339H138.118V196.092Z" fill="white"/>
<path d="M152.61 196.092H145.363V203.339H152.61V196.092Z" fill="white"/>
<path d="M159.858 196.092H152.611V203.339H159.858V196.092Z" fill="white"/>
<path d="M174.352 196.092H167.105V203.339H174.352V196.092Z" fill="white"/>
<path d="M188.845 196.092H181.598V203.339H188.845V196.092Z" fill="white"/>
<path d="M217.833 196.092H210.586V203.339H217.833V196.092Z" fill="white"/>
<path d="M225.081 196.092H217.834V203.339H225.081V196.092Z" fill="white"/>
<path d="M22.1668 203.339H14.9199V210.586H22.1668V203.339Z" fill="white"/>
<path d="M36.661 203.339H29.4141V210.586H36.661V203.339Z" fill="white"/>
<path d="M43.907 203.339H36.6602V210.586H43.907V203.339Z" fill="white"/>
<path d="M51.1551 203.339H43.9082V210.586H51.1551V203.339Z" fill="white"/>
<path d="M65.6492 203.339H58.4023V210.586H65.6492V203.339Z" fill="white"/>
<path d="M109.13 203.339H101.883V210.586H109.13V203.339Z" fill="white"/>
<path d="M116.376 203.339H109.129V210.586H116.376V203.339Z" fill="white"/>
<path d="M130.87 203.339H123.623V210.586H130.87V203.339Z" fill="white"/>
<path d="M152.61 203.339H145.363V210.586H152.61V203.339Z" fill="white"/>
<path d="M167.104 203.339H159.857V210.586H167.104V203.339Z" fill="white"/>
<path d="M188.845 203.339H181.598V210.586H188.845V203.339Z" fill="white"/>
<path d="M196.093 203.339H188.846V210.586H196.093V203.339Z" fill="white"/>
<path d="M210.587 203.339H203.34V210.586H210.587V203.339Z" fill="white"/>
<path d="M217.833 203.339H210.586V210.586H217.833V203.339Z" fill="white"/>
<path d="M225.081 203.339H217.834V210.586H225.081V203.339Z" fill="white"/>
<path d="M22.1668 210.586H14.9199V217.833H22.1668V210.586Z" fill="white"/>
<path d="M65.6492 210.586H58.4023V217.833H65.6492V210.586Z" fill="white"/>
<path d="M80.1414 210.586H72.8945V217.833H80.1414V210.586Z" fill="white"/>
<path d="M94.6356 210.586H87.3887V217.833H94.6356V210.586Z" fill="white"/>
<path d="M101.884 210.586H94.6367V217.833H101.884V210.586Z" fill="white"/>
<path d="M109.13 210.586H101.883V217.833H109.13V210.586Z" fill="white"/>
<path d="M130.87 210.586H123.623V217.833H130.87V210.586Z" fill="white"/>
<path d="M174.352 210.586H167.105V217.833H174.352V210.586Z" fill="white"/>
<path d="M181.598 210.586H174.352V217.833H181.598V210.586Z" fill="white"/>
<path d="M203.339 210.586H196.092V217.833H203.339V210.586Z" fill="white"/>
<path d="M210.587 210.586H203.34V217.833H210.587V210.586Z" fill="white"/>
<path d="M225.081 210.586H217.834V217.833H225.081V210.586Z" fill="white"/>
<path d="M22.1668 217.833H14.9199V225.08H22.1668V217.833Z" fill="white"/>
<path d="M29.4129 217.833H22.166V225.08H29.4129V217.833Z" fill="white"/>
<path d="M36.661 217.833H29.4141V225.08H36.661V217.833Z" fill="white"/>
<path d="M43.907 217.833H36.6602V225.08H43.907V217.833Z" fill="white"/>
<path d="M51.1551 217.833H43.9082V225.08H51.1551V217.833Z" fill="white"/>
<path d="M58.4012 217.833H51.1543V225.08H58.4012V217.833Z" fill="white"/>
<path d="M65.6492 217.833H58.4023V225.08H65.6492V217.833Z" fill="white"/>
<path d="M80.1414 217.833H72.8945V225.08H80.1414V217.833Z" fill="white"/>
<path d="M101.884 217.833H94.6367V225.08H101.884V217.833Z" fill="white"/>
<path d="M116.376 217.833H109.129V225.08H116.376V217.833Z" fill="white"/>
<path d="M130.87 217.833H123.623V225.08H130.87V217.833Z" fill="white"/>
<path d="M138.118 217.833H130.871V225.08H138.118V217.833Z" fill="white"/>
<path d="M167.104 217.833H159.857V225.08H167.104V217.833Z" fill="white"/>
<path d="M174.352 217.833H167.105V225.08H174.352V217.833Z" fill="white"/>
<path d="M196.093 217.833H188.846V225.08H196.093V217.833Z" fill="white"/>
</g>
<rect x="0.5" y="0.5" width="239" height="239" rx="15.5" stroke="url(#paint0_linear_1325_20582)"/>
<defs>
<linearGradient id="paint0_linear_1325_20582" x1="-10" y1="-7" x2="255" y2="252.5" gradientUnits="userSpaceOnUse">
<stop stop-color="white"/>
<stop offset="0.13" stop-color="white" stop-opacity="0"/>
<stop offset="0.865" stop-color="white" stop-opacity="0"/>
<stop offset="1" stop-color="white"/>
</linearGradient>
<clipPath id="clip0_1325_20582">
<rect width="240" height="240" rx="16" fill="white"/>
</clipPath>
</defs>
</svg>
