<svg width="24" height="24" viewBox="0 0 24 24" fill="none" xmlns="http://www.w3.org/2000/svg">
<path d="M12 22C17.5228 22 22 17.5228 22 12C22 6.47715 17.5228 2 12 2C6.47715 2 2 6.47715 2 12C2 17.5228 6.47715 22 12 22Z" fill="white" stroke="white" stroke-width="1.5" stroke-miterlimit="10"/>
<path fill-rule="evenodd" clip-rule="evenodd" d="M6.32324 11.3139C9.40054 9.97314 11.4526 9.08925 12.4793 8.6622C15.4108 7.44288 16.02 7.23107 16.417 7.22407C16.5043 7.22254 16.6996 7.24418 16.826 7.3468C16.9328 7.43346 16.9622 7.55051 16.9763 7.63267C16.9903 7.71483 17.0078 7.90199 16.9939 8.04823C16.8351 9.71739 16.1477 13.768 15.798 15.6375C15.65 16.4285 15.3586 16.6938 15.0766 16.7197C14.4636 16.7761 13.9981 16.3146 13.4043 15.9254C12.4753 15.3164 11.9504 14.9373 11.0486 14.343C10.0064 13.6562 10.682 13.2787 11.2759 12.6618C11.4314 12.5004 14.1323 10.0437 14.1846 9.82079C14.1911 9.79292 14.1972 9.68902 14.1355 9.63416C14.0738 9.5793 13.9827 9.59806 13.9169 9.61298C13.8237 9.63413 12.3395 10.6151 9.46432 12.556C9.04303 12.8453 8.66145 12.9862 8.31956 12.9788C7.94265 12.9707 7.21764 12.7657 6.67866 12.5905C6.01759 12.3756 5.49218 12.262 5.53793 11.8971C5.56176 11.707 5.82353 11.5126 6.32324 11.3139Z" fill="#101010"/>
</svg>
