<svg width="14" height="15" viewBox="0 0 14 15" fill="none" xmlns="http://www.w3.org/2000/svg">
<path fill-rule="evenodd" clip-rule="evenodd" d="M5.70697 2.46067C5.56878 2.57844 5.49967 2.63733 5.42588 2.68679C5.25671 2.80018 5.06672 2.87887 4.86693 2.91832C4.77977 2.93552 4.68927 2.94274 4.50827 2.95719C4.0535 2.99348 3.82612 3.01163 3.63641 3.07863C3.19764 3.23361 2.85251 3.57874 2.69753 4.01751C2.63052 4.20722 2.61238 4.43461 2.57609 4.88938C2.56164 5.07037 2.55442 5.16087 2.53721 5.24803C2.49777 5.44783 2.41907 5.63781 2.30569 5.80698C2.25623 5.88078 2.19734 5.94988 2.07957 6.08808C1.78366 6.4353 1.6357 6.60892 1.54894 6.79045C1.34827 7.21029 1.34827 7.69838 1.54894 8.11823C1.6357 8.29975 1.78366 8.47337 2.07957 8.8206C2.19733 8.95878 2.25623 9.0279 2.30569 9.1017C2.41907 9.27086 2.49777 9.46085 2.53721 9.66064C2.55442 9.7478 2.56164 9.8383 2.57609 10.0193C2.61238 10.4741 2.63052 10.7015 2.69753 10.8912C2.85251 11.3299 3.19764 11.6751 3.63641 11.83C3.82612 11.897 4.0535 11.9152 4.50827 11.9515C4.68927 11.9659 4.77977 11.9732 4.86693 11.9904C5.06672 12.0298 5.25671 12.1085 5.42587 12.2219C5.49967 12.2713 5.56877 12.3302 5.70697 12.448C6.0542 12.7439 6.22782 12.8919 6.40934 12.9786C6.82919 13.1793 7.31728 13.1793 7.73712 12.9786C7.91865 12.8919 8.09226 12.7439 8.4395 12.448C8.5777 12.3302 8.64679 12.2713 8.72059 12.2219C8.88976 12.1085 9.07974 12.0298 9.27954 11.9904C9.3667 11.9732 9.4572 11.9659 9.6382 11.9515C10.093 11.9152 10.3204 11.897 10.5101 11.83C10.9488 11.6751 11.294 11.3299 11.4489 10.8912C11.5159 10.7015 11.5341 10.4741 11.5704 10.0193C11.5848 9.8383 11.592 9.7478 11.6093 9.66064C11.6487 9.46085 11.7274 9.27086 11.8408 9.1017C11.8902 9.0279 11.9491 8.9588 12.0669 8.8206C12.3628 8.47337 12.5108 8.29975 12.5975 8.11823C12.7982 7.69838 12.7982 7.21029 12.5975 6.79045C12.5108 6.60892 12.3628 6.43531 12.0669 6.08808C11.9491 5.94988 11.8902 5.88078 11.8408 5.80698C11.7274 5.63781 11.6487 5.44783 11.6093 5.24803C11.592 5.16087 11.5848 5.07037 11.5704 4.88938C11.5341 4.43461 11.5159 4.20722 11.4489 4.01751C11.294 3.57874 10.9488 3.23361 10.5101 3.07863C10.3204 3.01163 10.093 2.99348 9.6382 2.95719C9.4572 2.94274 9.3667 2.93552 9.27954 2.91832C9.07974 2.87887 8.88976 2.80018 8.72059 2.68679C8.64679 2.63733 8.57769 2.57844 8.4395 2.46067C8.09226 2.16476 7.91865 2.01681 7.73712 1.93005C7.31728 1.72937 6.82919 1.72937 6.40934 1.93005C6.22782 2.01681 6.0542 2.16477 5.70697 2.46067ZM9.5551 6.24171C9.73546 6.06135 9.73546 5.76892 9.5551 5.58856C9.37473 5.40819 9.08231 5.40819 8.90194 5.58856L6.14953 8.34097L5.24451 7.43595C5.06414 7.25559 4.77172 7.25559 4.59135 7.43595C4.41099 7.61632 4.41099 7.90874 4.59135 8.08911L5.82295 9.3207C6.00332 9.50107 6.29574 9.50107 6.47611 9.3207L9.5551 6.24171Z" fill="#FF842C"/>
</svg>
